<mxfile host="app.diagrams.net" modified="2021-03-31T13:09:57.431Z" agent="5.0 (Windows NT 10.0; Win64; x64) AppleWebKit/537.36 (KHTML, like Gecko) Chrome/89.0.4389.90 Safari/537.36" etag="qTyf7D5_iwN6Mse46B41" version="14.5.3" type="github">
  <diagram id="iHHlm2zwKzoFNvy3WQey" name="Page-1">
    <mxGraphModel dx="942" dy="583" grid="1" gridSize="10" guides="1" tooltips="1" connect="1" arrows="1" fold="1" page="1" pageScale="1" pageWidth="827" pageHeight="1169" math="0" shadow="0">
      <root>
        <mxCell id="0" />
        <mxCell id="1" parent="0" />
        <mxCell id="lP5HHAIcXUJJQwp4lP9l-2" value="&lt;font style=&quot;font-size: 14px&quot;&gt;前端&lt;/font&gt;" style="rounded=1;whiteSpace=wrap;html=1;" vertex="1" parent="1">
          <mxGeometry x="120" y="190" width="90" height="40" as="geometry" />
        </mxCell>
        <mxCell id="lP5HHAIcXUJJQwp4lP9l-3" value="&lt;font style=&quot;font-size: 14px&quot;&gt;mongoDB&lt;br&gt;&lt;/font&gt;" style="rounded=1;whiteSpace=wrap;html=1;" vertex="1" parent="1">
          <mxGeometry x="580" y="190" width="90" height="40" as="geometry" />
        </mxCell>
        <mxCell id="lP5HHAIcXUJJQwp4lP9l-4" value="&lt;font style=&quot;font-size: 14px&quot;&gt;后端&lt;br&gt;&lt;/font&gt;" style="rounded=1;whiteSpace=wrap;html=1;" vertex="1" parent="1">
          <mxGeometry x="350" y="190" width="90" height="40" as="geometry" />
        </mxCell>
        <mxCell id="lP5HHAIcXUJJQwp4lP9l-8" value="&lt;font style=&quot;font-size: 14px&quot;&gt;mongoose&lt;/font&gt;" style="rounded=1;whiteSpace=wrap;html=1;" vertex="1" parent="1">
          <mxGeometry x="460" y="150" width="90" height="40" as="geometry" />
        </mxCell>
        <mxCell id="lP5HHAIcXUJJQwp4lP9l-11" value="&lt;span style=&quot;font-size: 14px&quot;&gt;webpack proxy代理&lt;/span&gt;" style="rounded=1;whiteSpace=wrap;html=1;" vertex="1" parent="1">
          <mxGeometry x="230" y="150" width="90" height="40" as="geometry" />
        </mxCell>
        <mxCell id="lP5HHAIcXUJJQwp4lP9l-15" value="vue+element" style="rounded=1;whiteSpace=wrap;html=1;" vertex="1" parent="1">
          <mxGeometry x="120" y="280" width="90" height="40" as="geometry" />
        </mxCell>
        <mxCell id="lP5HHAIcXUJJQwp4lP9l-16" value="&lt;font style=&quot;font-size: 14px&quot;&gt;&lt;span style=&quot;font-size: 12px&quot;&gt;node.js + express&lt;/span&gt;&lt;br&gt;&lt;/font&gt;" style="rounded=1;whiteSpace=wrap;html=1;" vertex="1" parent="1">
          <mxGeometry x="350" y="280" width="90" height="40" as="geometry" />
        </mxCell>
        <mxCell id="lP5HHAIcXUJJQwp4lP9l-19" value="&lt;font style=&quot;font-size: 14px&quot;&gt;&lt;span style=&quot;font-size: 12px&quot;&gt;app.js&lt;/span&gt;&lt;br&gt;&lt;/font&gt;" style="rounded=1;whiteSpace=wrap;html=1;" vertex="1" parent="1">
          <mxGeometry x="350" y="370" width="90" height="40" as="geometry" />
        </mxCell>
        <mxCell id="lP5HHAIcXUJJQwp4lP9l-40" value="技术栈" style="ellipse;shape=cloud;whiteSpace=wrap;html=1;" vertex="1" parent="1">
          <mxGeometry x="600" y="260" width="120" height="80" as="geometry" />
        </mxCell>
        <mxCell id="lP5HHAIcXUJJQwp4lP9l-41" value="" style="shape=flexArrow;endArrow=classic;html=1;" edge="1" parent="1">
          <mxGeometry width="50" height="50" relative="1" as="geometry">
            <mxPoint x="470" y="300" as="sourcePoint" />
            <mxPoint x="590" y="300" as="targetPoint" />
          </mxGeometry>
        </mxCell>
        <mxCell id="lP5HHAIcXUJJQwp4lP9l-49" value="" style="rounded=1;whiteSpace=wrap;html=1;" vertex="1" parent="1">
          <mxGeometry x="210" y="460" width="380" height="120" as="geometry" />
        </mxCell>
        <mxCell id="lP5HHAIcXUJJQwp4lP9l-50" value="&lt;font style=&quot;font-size: 14px&quot;&gt;&lt;span style=&quot;font-size: 12px&quot;&gt;company.js&lt;/span&gt;&lt;br&gt;&lt;/font&gt;" style="rounded=1;whiteSpace=wrap;html=1;" vertex="1" parent="1">
          <mxGeometry x="240" y="470" width="90" height="40" as="geometry" />
        </mxCell>
        <mxCell id="lP5HHAIcXUJJQwp4lP9l-51" value="&lt;font style=&quot;font-size: 14px&quot;&gt;&lt;span style=&quot;font-size: 12px&quot;&gt;department.js&lt;/span&gt;&lt;br&gt;&lt;/font&gt;" style="rounded=1;whiteSpace=wrap;html=1;" vertex="1" parent="1">
          <mxGeometry x="350" y="470" width="90" height="40" as="geometry" />
        </mxCell>
        <mxCell id="lP5HHAIcXUJJQwp4lP9l-52" value="&lt;font style=&quot;font-size: 14px&quot;&gt;&lt;span style=&quot;font-size: 12px&quot;&gt;employee.js&lt;/span&gt;&lt;br&gt;&lt;/font&gt;" style="rounded=1;whiteSpace=wrap;html=1;" vertex="1" parent="1">
          <mxGeometry x="460" y="470" width="90" height="40" as="geometry" />
        </mxCell>
        <mxCell id="lP5HHAIcXUJJQwp4lP9l-53" value="&lt;font style=&quot;font-size: 14px&quot;&gt;&lt;span style=&quot;font-size: 12px&quot;&gt;city.js&lt;/span&gt;&lt;br&gt;&lt;/font&gt;" style="rounded=1;whiteSpace=wrap;html=1;" vertex="1" parent="1">
          <mxGeometry x="240" y="530" width="90" height="40" as="geometry" />
        </mxCell>
        <mxCell id="lP5HHAIcXUJJQwp4lP9l-54" value="&lt;font style=&quot;font-size: 14px&quot;&gt;&lt;span style=&quot;font-size: 12px&quot;&gt;designation.js&lt;/span&gt;&lt;br&gt;&lt;/font&gt;" style="rounded=1;whiteSpace=wrap;html=1;" vertex="1" parent="1">
          <mxGeometry x="350" y="530" width="90" height="40" as="geometry" />
        </mxCell>
        <mxCell id="lP5HHAIcXUJJQwp4lP9l-55" value="&lt;font style=&quot;font-size: 14px&quot;&gt;&lt;span style=&quot;font-size: 12px&quot;&gt;。。。&lt;/span&gt;&lt;br&gt;&lt;/font&gt;" style="rounded=1;whiteSpace=wrap;html=1;" vertex="1" parent="1">
          <mxGeometry x="460" y="530" width="90" height="40" as="geometry" />
        </mxCell>
        <mxCell id="lP5HHAIcXUJJQwp4lP9l-56" value="" style="shape=flexArrow;endArrow=classic;html=1;exitX=0.5;exitY=1;exitDx=0;exitDy=0;" edge="1" parent="1" source="lP5HHAIcXUJJQwp4lP9l-19">
          <mxGeometry width="50" height="50" relative="1" as="geometry">
            <mxPoint x="340" y="570" as="sourcePoint" />
            <mxPoint x="395" y="460" as="targetPoint" />
          </mxGeometry>
        </mxCell>
        <mxCell id="lP5HHAIcXUJJQwp4lP9l-57" value="" style="shape=flexArrow;endArrow=classic;startArrow=classic;html=1;entryX=0;entryY=0.5;entryDx=0;entryDy=0;exitX=1;exitY=0.5;exitDx=0;exitDy=0;" edge="1" parent="1" source="lP5HHAIcXUJJQwp4lP9l-4" target="lP5HHAIcXUJJQwp4lP9l-3">
          <mxGeometry width="50" height="50" relative="1" as="geometry">
            <mxPoint x="340" y="370" as="sourcePoint" />
            <mxPoint x="390" y="320" as="targetPoint" />
          </mxGeometry>
        </mxCell>
        <mxCell id="lP5HHAIcXUJJQwp4lP9l-58" value="" style="shape=flexArrow;endArrow=classic;startArrow=classic;html=1;entryX=0;entryY=0.5;entryDx=0;entryDy=0;exitX=1;exitY=0.5;exitDx=0;exitDy=0;" edge="1" parent="1">
          <mxGeometry width="50" height="50" relative="1" as="geometry">
            <mxPoint x="210" y="209.5" as="sourcePoint" />
            <mxPoint x="350" y="209.5" as="targetPoint" />
          </mxGeometry>
        </mxCell>
        <mxCell id="lP5HHAIcXUJJQwp4lP9l-61" value="" style="shape=flexArrow;endArrow=classic;html=1;exitX=0.5;exitY=1;exitDx=0;exitDy=0;" edge="1" parent="1">
          <mxGeometry width="50" height="50" relative="1" as="geometry">
            <mxPoint x="394.5" y="320" as="sourcePoint" />
            <mxPoint x="394.5" y="370" as="targetPoint" />
          </mxGeometry>
        </mxCell>
        <mxCell id="lP5HHAIcXUJJQwp4lP9l-66" value="" style="rounded=1;whiteSpace=wrap;html=1;" vertex="1" parent="1">
          <mxGeometry x="210" y="640" width="380" height="60" as="geometry" />
        </mxCell>
        <mxCell id="lP5HHAIcXUJJQwp4lP9l-67" value="&lt;font&gt;mongoose.Schema&lt;br&gt;&lt;/font&gt;" style="rounded=1;whiteSpace=wrap;html=1;" vertex="1" parent="1">
          <mxGeometry x="240" y="650" width="140" height="40" as="geometry" />
        </mxCell>
        <mxCell id="lP5HHAIcXUJJQwp4lP9l-69" value="&lt;font style=&quot;font-size: 14px&quot;&gt;&lt;span style=&quot;font-size: 12px&quot;&gt;mongoose.module&lt;/span&gt;&lt;br&gt;&lt;/font&gt;" style="rounded=1;whiteSpace=wrap;html=1;" vertex="1" parent="1">
          <mxGeometry x="430" y="650" width="120" height="40" as="geometry" />
        </mxCell>
        <mxCell id="lP5HHAIcXUJJQwp4lP9l-74" value="" style="shape=flexArrow;endArrow=classic;html=1;exitX=1;exitY=0.5;exitDx=0;exitDy=0;entryX=0;entryY=0.5;entryDx=0;entryDy=0;" edge="1" parent="1" source="lP5HHAIcXUJJQwp4lP9l-67" target="lP5HHAIcXUJJQwp4lP9l-69">
          <mxGeometry width="50" height="50" relative="1" as="geometry">
            <mxPoint x="370" y="580" as="sourcePoint" />
            <mxPoint x="420" y="530" as="targetPoint" />
          </mxGeometry>
        </mxCell>
        <mxCell id="lP5HHAIcXUJJQwp4lP9l-75" value="" style="shape=flexArrow;endArrow=classic;html=1;" edge="1" parent="1">
          <mxGeometry width="50" height="50" relative="1" as="geometry">
            <mxPoint x="300" y="580" as="sourcePoint" />
            <mxPoint x="300" y="640" as="targetPoint" />
          </mxGeometry>
        </mxCell>
        <mxCell id="lP5HHAIcXUJJQwp4lP9l-76" value="路由分发" style="text;html=1;strokeColor=none;fillColor=none;align=center;verticalAlign=middle;whiteSpace=wrap;rounded=0;" vertex="1" parent="1">
          <mxGeometry x="410" y="420" width="90" height="20" as="geometry" />
        </mxCell>
        <mxCell id="lP5HHAIcXUJJQwp4lP9l-77" value="module数据层" style="text;html=1;strokeColor=none;fillColor=none;align=center;verticalAlign=middle;whiteSpace=wrap;rounded=0;" vertex="1" parent="1">
          <mxGeometry x="320" y="600" width="90" height="20" as="geometry" />
        </mxCell>
        <mxCell id="lP5HHAIcXUJJQwp4lP9l-78" value="mongodb" style="shape=cylinder3;whiteSpace=wrap;html=1;boundedLbl=1;backgroundOutline=1;size=15;" vertex="1" parent="1">
          <mxGeometry x="290" y="730" width="60" height="80" as="geometry" />
        </mxCell>
        <mxCell id="lP5HHAIcXUJJQwp4lP9l-80" value="" style="html=1;shadow=0;dashed=0;align=center;verticalAlign=middle;shape=mxgraph.arrows2.bendDoubleArrow;dy=15;dx=38;arrowHead=55;rounded=1;rotation=-180;" vertex="1" parent="1">
          <mxGeometry x="365" y="700" width="160" height="105" as="geometry" />
        </mxCell>
        <mxCell id="lP5HHAIcXUJJQwp4lP9l-81" value="操作数据库" style="text;html=1;strokeColor=none;fillColor=none;align=center;verticalAlign=middle;whiteSpace=wrap;rounded=0;" vertex="1" parent="1">
          <mxGeometry x="400" y="740" width="90" height="20" as="geometry" />
        </mxCell>
        <mxCell id="lP5HHAIcXUJJQwp4lP9l-82" value="入口文件" style="text;html=1;strokeColor=none;fillColor=none;align=center;verticalAlign=middle;whiteSpace=wrap;rounded=0;" vertex="1" parent="1">
          <mxGeometry x="440" y="380" width="90" height="20" as="geometry" />
        </mxCell>
      </root>
    </mxGraphModel>
  </diagram>
</mxfile>
